{
  "asset": {
    "generator": "Khronos glTF Blender I/O v5.1.20",
    "version": "2.0"
  },
  "scene": 0,
  "scenes": [
    {
      "name": "Scene",
      "nodes": [
        0
      ]
    }
  ],
  "nodes": [
    {
      "mesh": 0,
      "name": "combination_wrench"
    }
  ],
  "materials": [
    {
      "doubleSided": true,
      "name": "combination_wrench",
      "normalTexture": {
        "index": 0
      },
      "pbrMetallicRoughness": {
        "baseColorTexture": {
          "index": 1
        },
        "metallicRoughnessTexture": {
          "index": 2
        }
      }
    }
  ],
  "meshes": [
    {
      "name": "Circle.001",
      "primitives": [
        {
          "attributes": {
            "POSITION": 0,
            "NORMAL": 1,
            "TEXCOORD_0": 2
          },
          "indices": 3,
          "material": 0
        }
      ]
    }
  ],
  "textures": [
    {
      "sampler": 0,
      "source": 0
    },
    {
      "sampler": 0,
      "source": 1
    },
    {
      "sampler": 0,
      "source": 2
    }
  ],
  "images": [
    {
      "mimeType": "image/jpeg",
      "name": "combination_wrench_nor_gl",
      "uri": "textures/combination_wrench_nor_gl_1k.jpg"
    },
    {
      "mimeType": "image/jpeg",
      "name": "combination_wrench_diff",
      "uri": "textures/combination_wrench_diff_1k.jpg"
    },
    {
      "mimeType": "image/jpeg",
      "name": "combination_wrench_metal-combination_wrench_rough",
      "uri": "textures/combination_wrench_arm_1k.jpg"
    }
  ],
  "accessors": [
    {
      "bufferView": 0,
      "componentType": 5126,
      "count": 1680,
      "max": [
        0.028088420629501343,
        0.015569813549518585,
        0.16143281757831573
      ],
      "min": [
        -0.028492672368884087,
        -0.0059431977570056915,
        -0.17555131018161774
      ],
      "type": "VEC3"
    },
    {
      "bufferView": 1,
      "componentType": 5126,
      "count": 1680,
      "type": "VEC3"
    },
    {
      "bufferView": 2,
      "componentType": 5126,
      "count": 1680,
      "type": "VEC2"
    },
    {
      "bufferView": 3,
      "componentType": 5123,
      "count": 5958,
      "type": "SCALAR"
    }
  ],
  "bufferViews": [
    {
      "buffer": 0,
      "byteLength": 20160,
      "byteOffset": 0,
      "target": 34962
    },
    {
      "buffer": 0,
      "byteLength": 20160,
      "byteOffset": 20160,
      "target": 34962
    },
    {
      "buffer": 0,
      "byteLength": 13440,
      "byteOffset": 40320,
      "target": 34962
    },
    {
      "buffer": 0,
      "byteLength": 11916,
      "byteOffset": 53760,
      "target": 34963
    }
  ],
  "samplers": [
    {
      "magFilter": 9729,
      "minFilter": 9987
    }
  ],
  "buffers": [
    {
      "byteLength": 65676,
      "uri": "combination_wrench.bin"
    }
  ]
}